<?xml version="1.0" encoding="UTF-8" standalone="no"?>
<!DOCTYPE svg PUBLIC "-//W3C//DTD SVG 1.1//EN"
 "http://www.w3.org/Graphics/SVG/1.1/DTD/svg11.dtd">
<!-- Generated by graphviz version 12.2.1 (20241206.2353)
 -->
<!-- Pages: 1 -->
<svg width="444pt" height="489pt"
 viewBox="0.00 0.00 443.88 489.00" xmlns="http://www.w3.org/2000/svg" xmlns:xlink="http://www.w3.org/1999/xlink">
<g id="graph0" class="graph" transform="scale(1 1) rotate(0) translate(4 485)">
<polygon fill="white" stroke="none" points="-4,4 -4,-485 439.88,-485 439.88,4 -4,4"/>
<!-- node_1461003439040 -->
<g id="node1" class="node">
<title>node_1461003439040</title>
<polygon fill="none" stroke="black" points="220.88,-481 88.62,-481 88.62,-423.5 220.88,-423.5 220.88,-481"/>
<text text-anchor="middle" x="154.75" y="-463.7" font-family="Times New Roman,serif" font-size="14.00">Outlook == Overcast</text>
<text text-anchor="middle" x="154.75" y="-447.2" font-family="Times New Roman,serif" font-size="14.00">Gini: 0.46</text>
<text text-anchor="middle" x="154.75" y="-430.7" font-family="Times New Roman,serif" font-size="14.00">Class: Yes</text>
</g>
<!-- leaf_1461003908016 -->
<g id="node2" class="node">
<title>leaf_1461003908016</title>
<polygon fill="none" stroke="black" points="169.88,-362.75 97.62,-362.75 97.62,-321.75 169.88,-321.75 169.88,-362.75"/>
<text text-anchor="middle" x="133.75" y="-345.45" font-family="Times New Roman,serif" font-size="14.00">Class: Yes</text>
<text text-anchor="middle" x="133.75" y="-328.95" font-family="Times New Roman,serif" font-size="14.00">Gini: 0.00</text>
</g>
<!-- node_1461003439040&#45;&gt;leaf_1461003908016 -->
<g id="edge1" class="edge">
<title>node_1461003439040&#45;&gt;leaf_1461003908016</title>
<path fill="none" stroke="black" d="M149.29,-423.16C146.36,-408.12 142.75,-389.56 139.75,-374.12"/>
<polygon fill="black" stroke="black" points="143.23,-373.66 137.88,-364.51 136.36,-374.99 143.23,-373.66"/>
<text text-anchor="middle" x="155.63" y="-392.2" font-family="Times New Roman,serif" font-size="14.00">Yes</text>
</g>
<!-- node_1461003896688 -->
<g id="node3" class="node">
<title>node_1461003896688</title>
<polygon fill="none" stroke="black" points="307.5,-371 188,-371 188,-313.5 307.5,-313.5 307.5,-371"/>
<text text-anchor="middle" x="247.75" y="-353.7" font-family="Times New Roman,serif" font-size="14.00">Humidity == High</text>
<text text-anchor="middle" x="247.75" y="-337.2" font-family="Times New Roman,serif" font-size="14.00">Gini: 0.50</text>
<text text-anchor="middle" x="247.75" y="-320.7" font-family="Times New Roman,serif" font-size="14.00">Class: No</text>
</g>
<!-- node_1461003439040&#45;&gt;node_1461003896688 -->
<g id="edge2" class="edge">
<title>node_1461003439040&#45;&gt;node_1461003896688</title>
<path fill="none" stroke="black" d="M178.94,-423.16C190.35,-409.91 204.11,-393.93 216.32,-379.76"/>
<polygon fill="black" stroke="black" points="218.82,-382.21 222.69,-372.35 213.51,-377.64 218.82,-382.21"/>
<text text-anchor="middle" x="215.07" y="-392.2" font-family="Times New Roman,serif" font-size="14.00">No</text>
</g>
<!-- node_1461003909168 -->
<g id="node4" class="node">
<title>node_1461003909168</title>
<polygon fill="none" stroke="black" points="229.62,-261 119.88,-261 119.88,-203.5 229.62,-203.5 229.62,-261"/>
<text text-anchor="middle" x="174.75" y="-243.7" font-family="Times New Roman,serif" font-size="14.00">Outlook == Rain</text>
<text text-anchor="middle" x="174.75" y="-227.2" font-family="Times New Roman,serif" font-size="14.00">Gini: 0.32</text>
<text text-anchor="middle" x="174.75" y="-210.7" font-family="Times New Roman,serif" font-size="14.00">Class: No</text>
</g>
<!-- node_1461003896688&#45;&gt;node_1461003909168 -->
<g id="edge3" class="edge">
<title>node_1461003896688&#45;&gt;node_1461003909168</title>
<path fill="none" stroke="black" d="M228.76,-313.16C219.97,-300.16 209.41,-284.53 199.97,-270.56"/>
<polygon fill="black" stroke="black" points="202.99,-268.78 194.49,-262.46 197.19,-272.7 202.99,-268.78"/>
<text text-anchor="middle" x="225.75" y="-282.2" font-family="Times New Roman,serif" font-size="14.00">Yes</text>
</g>
<!-- node_1461003908688 -->
<g id="node9" class="node">
<title>node_1461003908688</title>
<polygon fill="none" stroke="black" points="353.75,-261 247.75,-261 247.75,-203.5 353.75,-203.5 353.75,-261"/>
<text text-anchor="middle" x="300.75" y="-243.7" font-family="Times New Roman,serif" font-size="14.00">Wind == Strong</text>
<text text-anchor="middle" x="300.75" y="-227.2" font-family="Times New Roman,serif" font-size="14.00">Gini: 0.32</text>
<text text-anchor="middle" x="300.75" y="-210.7" font-family="Times New Roman,serif" font-size="14.00">Class: Yes</text>
</g>
<!-- node_1461003896688&#45;&gt;node_1461003908688 -->
<g id="edge8" class="edge">
<title>node_1461003896688&#45;&gt;node_1461003908688</title>
<path fill="none" stroke="black" d="M261.54,-313.16C267.79,-300.41 275.29,-285.13 282.04,-271.37"/>
<polygon fill="black" stroke="black" points="285.1,-273.08 286.37,-262.56 278.82,-270 285.1,-273.08"/>
<text text-anchor="middle" x="285.67" y="-282.2" font-family="Times New Roman,serif" font-size="14.00">No</text>
</g>
<!-- node_1461003899040 -->
<g id="node5" class="node">
<title>node_1461003899040</title>
<polygon fill="none" stroke="black" points="123.75,-151 17.75,-151 17.75,-93.5 123.75,-93.5 123.75,-151"/>
<text text-anchor="middle" x="70.75" y="-133.7" font-family="Times New Roman,serif" font-size="14.00">Wind == Strong</text>
<text text-anchor="middle" x="70.75" y="-117.2" font-family="Times New Roman,serif" font-size="14.00">Gini: 0.50</text>
<text text-anchor="middle" x="70.75" y="-100.7" font-family="Times New Roman,serif" font-size="14.00">Class: No</text>
</g>
<!-- node_1461003909168&#45;&gt;node_1461003899040 -->
<g id="edge4" class="edge">
<title>node_1461003909168&#45;&gt;node_1461003899040</title>
<path fill="none" stroke="black" d="M147.7,-203.16C134.82,-189.78 119.26,-173.63 105.52,-159.35"/>
<polygon fill="black" stroke="black" points="108.18,-157.07 98.72,-152.29 103.13,-161.92 108.18,-157.07"/>
<text text-anchor="middle" x="139.1" y="-172.2" font-family="Times New Roman,serif" font-size="14.00">Yes</text>
</g>
<!-- leaf_1461003905856 -->
<g id="node8" class="node">
<title>leaf_1461003905856</title>
<polygon fill="none" stroke="black" points="213.5,-142.75 142,-142.75 142,-101.75 213.5,-101.75 213.5,-142.75"/>
<text text-anchor="middle" x="177.75" y="-125.45" font-family="Times New Roman,serif" font-size="14.00">Class: No</text>
<text text-anchor="middle" x="177.75" y="-108.95" font-family="Times New Roman,serif" font-size="14.00">Gini: 0.00</text>
</g>
<!-- node_1461003909168&#45;&gt;leaf_1461003905856 -->
<g id="edge7" class="edge">
<title>node_1461003909168&#45;&gt;leaf_1461003905856</title>
<path fill="none" stroke="black" d="M175.53,-203.16C175.95,-188.12 176.46,-169.56 176.89,-154.12"/>
<polygon fill="black" stroke="black" points="180.38,-154.63 177.16,-144.54 173.38,-154.44 180.38,-154.63"/>
<text text-anchor="middle" x="184.68" y="-172.2" font-family="Times New Roman,serif" font-size="14.00">No</text>
</g>
<!-- leaf_1461003910896 -->
<g id="node6" class="node">
<title>leaf_1461003910896</title>
<polygon fill="none" stroke="black" points="71.5,-41 0,-41 0,0 71.5,0 71.5,-41"/>
<text text-anchor="middle" x="35.75" y="-23.7" font-family="Times New Roman,serif" font-size="14.00">Class: No</text>
<text text-anchor="middle" x="35.75" y="-7.2" font-family="Times New Roman,serif" font-size="14.00">Gini: 0.00</text>
</g>
<!-- node_1461003899040&#45;&gt;leaf_1461003910896 -->
<g id="edge5" class="edge">
<title>node_1461003899040&#45;&gt;leaf_1461003910896</title>
<path fill="none" stroke="black" d="M60.91,-93.2C56.43,-80.45 51.13,-65.34 46.55,-52.28"/>
<polygon fill="black" stroke="black" points="49.86,-51.15 43.25,-42.87 43.26,-53.47 49.86,-51.15"/>
<text text-anchor="middle" x="64.42" y="-62.2" font-family="Times New Roman,serif" font-size="14.00">Yes</text>
</g>
<!-- leaf_1461003906864 -->
<g id="node7" class="node">
<title>leaf_1461003906864</title>
<polygon fill="none" stroke="black" points="161.88,-41 89.62,-41 89.62,0 161.88,0 161.88,-41"/>
<text text-anchor="middle" x="125.75" y="-23.7" font-family="Times New Roman,serif" font-size="14.00">Class: Yes</text>
<text text-anchor="middle" x="125.75" y="-7.2" font-family="Times New Roman,serif" font-size="14.00">Gini: 0.00</text>
</g>
<!-- node_1461003899040&#45;&gt;leaf_1461003906864 -->
<g id="edge6" class="edge">
<title>node_1461003899040&#45;&gt;leaf_1461003906864</title>
<path fill="none" stroke="black" d="M86.22,-93.2C93.39,-80.19 101.92,-64.72 109.21,-51.49"/>
<polygon fill="black" stroke="black" points="112.26,-53.22 114.02,-42.77 106.13,-49.84 112.26,-53.22"/>
<text text-anchor="middle" x="113.04" y="-62.2" font-family="Times New Roman,serif" font-size="14.00">No</text>
</g>
<!-- node_1461003896640 -->
<g id="node10" class="node">
<title>node_1461003896640</title>
<polygon fill="none" stroke="black" points="345.62,-151 235.88,-151 235.88,-93.5 345.62,-93.5 345.62,-151"/>
<text text-anchor="middle" x="290.75" y="-133.7" font-family="Times New Roman,serif" font-size="14.00">Outlook == Rain</text>
<text text-anchor="middle" x="290.75" y="-117.2" font-family="Times New Roman,serif" font-size="14.00">Gini: 0.50</text>
<text text-anchor="middle" x="290.75" y="-100.7" font-family="Times New Roman,serif" font-size="14.00">Class: No</text>
</g>
<!-- node_1461003908688&#45;&gt;node_1461003896640 -->
<g id="edge9" class="edge">
<title>node_1461003908688&#45;&gt;node_1461003896640</title>
<path fill="none" stroke="black" d="M298.15,-203.16C297,-190.78 295.64,-176.03 294.39,-162.59"/>
<polygon fill="black" stroke="black" points="297.88,-162.34 293.48,-152.71 290.91,-162.99 297.88,-162.34"/>
<text text-anchor="middle" x="306.47" y="-172.2" font-family="Times New Roman,serif" font-size="14.00">Yes</text>
</g>
<!-- leaf_1461003901104 -->
<g id="node13" class="node">
<title>leaf_1461003901104</title>
<polygon fill="none" stroke="black" points="435.88,-142.75 363.62,-142.75 363.62,-101.75 435.88,-101.75 435.88,-142.75"/>
<text text-anchor="middle" x="399.75" y="-125.45" font-family="Times New Roman,serif" font-size="14.00">Class: Yes</text>
<text text-anchor="middle" x="399.75" y="-108.95" font-family="Times New Roman,serif" font-size="14.00">Gini: 0.00</text>
</g>
<!-- node_1461003908688&#45;&gt;leaf_1461003901104 -->
<g id="edge12" class="edge">
<title>node_1461003908688&#45;&gt;leaf_1461003901104</title>
<path fill="none" stroke="black" d="M326.5,-203.16C341.1,-187.23 359.31,-167.36 373.92,-151.43"/>
<polygon fill="black" stroke="black" points="376.42,-153.88 380.6,-144.14 371.26,-149.15 376.42,-153.88"/>
<text text-anchor="middle" x="364.43" y="-172.2" font-family="Times New Roman,serif" font-size="14.00">No</text>
</g>
<!-- leaf_1461003897360 -->
<g id="node11" class="node">
<title>leaf_1461003897360</title>
<polygon fill="none" stroke="black" points="271.5,-41 200,-41 200,0 271.5,0 271.5,-41"/>
<text text-anchor="middle" x="235.75" y="-23.7" font-family="Times New Roman,serif" font-size="14.00">Class: No</text>
<text text-anchor="middle" x="235.75" y="-7.2" font-family="Times New Roman,serif" font-size="14.00">Gini: 0.00</text>
</g>
<!-- node_1461003896640&#45;&gt;leaf_1461003897360 -->
<g id="edge10" class="edge">
<title>node_1461003896640&#45;&gt;leaf_1461003897360</title>
<path fill="none" stroke="black" d="M275.28,-93.2C268.11,-80.19 259.58,-64.72 252.29,-51.49"/>
<polygon fill="black" stroke="black" points="255.37,-49.84 247.48,-42.77 249.24,-53.22 255.37,-49.84"/>
<text text-anchor="middle" x="275.02" y="-62.2" font-family="Times New Roman,serif" font-size="14.00">Yes</text>
</g>
<!-- leaf_1461003897312 -->
<g id="node12" class="node">
<title>leaf_1461003897312</title>
<polygon fill="none" stroke="black" points="361.88,-41 289.62,-41 289.62,0 361.88,0 361.88,-41"/>
<text text-anchor="middle" x="325.75" y="-23.7" font-family="Times New Roman,serif" font-size="14.00">Class: Yes</text>
<text text-anchor="middle" x="325.75" y="-7.2" font-family="Times New Roman,serif" font-size="14.00">Gini: 0.00</text>
</g>
<!-- node_1461003896640&#45;&gt;leaf_1461003897312 -->
<g id="edge11" class="edge">
<title>node_1461003896640&#45;&gt;leaf_1461003897312</title>
<path fill="none" stroke="black" d="M300.59,-93.2C305.07,-80.45 310.37,-65.34 314.95,-52.28"/>
<polygon fill="black" stroke="black" points="318.24,-53.47 318.25,-42.87 311.64,-51.15 318.24,-53.47"/>
<text text-anchor="middle" x="320.66" y="-62.2" font-family="Times New Roman,serif" font-size="14.00">No</text>
</g>
</g>
</svg>
